<svg width="600" height="450" viewBox="0 0 600 450" fill="none" xmlns="http://www.w3.org/2000/svg">
  <rect width="600" height="450" fill="#0F425C"/>
  <rect x="50" y="50" width="500" height="350" fill="#FFFFFF" fill-opacity="0.1"/>
  
  <!-- Bricks -->
  <g fill="#FFFFFF" opacity="0.8">
    <rect x="100" y="150" width="80" height="40"/>
    <rect x="190" y="150" width="80" height="40"/>
    <rect x="280" y="150" width="80" height="40"/>
    <rect x="370" y="150" width="80" height="40"/>
    <rect x="145" y="200" width="80" height="40"/>
    <rect x="235" y="200" width="80" height="40"/>
    <rect x="325" y="200" width="80" height="40"/>
    <rect x="100" y="250" width="80" height="40"/>
    <rect x="190" y="250" width="80" height="40"/>
    <rect x="280" y="250" width="80" height="40"/>
    <rect x="370" y="250" width="80" height="40"/>
  </g>
  
  <!-- Cement bags -->
  <g fill="#FFFFFF" opacity="0.7">
    <rect x="120" y="320" width="60" height="80" rx="5"/>
    <rect x="200" y="320" width="60" height="80" rx="5"/>
    <rect x="280" y="320" width="60" height="80" rx="5"/>
    <rect x="360" y="320" width="60" height="80" rx="5"/>
  </g>
  
  <!-- Quality check marks -->
  <g fill="#FFFFFF" opacity="0.9">
    <circle cx="450" cy="180" r="8"/>
    <path d="M445 180 L448 183 L455 176" stroke="#0F425C" stroke-width="2" fill="none"/>
    <circle cx="450" cy="220" r="8"/>
    <path d="M445 220 L448 223 L455 216" stroke="#0F425C" stroke-width="2" fill="none"/>
    <circle cx="450" cy="260" r="8"/>
    <path d="M445 260 L448 263 L455 256" stroke="#0F425C" stroke-width="2" fill="none"/>
  </g>
  
  <!-- Text -->
  <text x="300" y="420" text-anchor="middle" fill="#FFFFFF" font-family="Arial, sans-serif" font-size="24" font-weight="bold">
    Materials & Procurement
  </text>
</svg>
